<?xml version="1.0" standalone="no"?>
<!DOCTYPE svg PUBLIC "-//W3C//DTD SVG 20010904//EN"
 "http://www.w3.org/TR/2001/REC-SVG-20010904/DTD/svg10.dtd">
<svg version="1.0" xmlns="http://www.w3.org/2000/svg"
 width="508.000000pt" height="103.000000pt" viewBox="0 0 508.000000 103.000000"
 preserveAspectRatio="xMidYMid meet">

<g transform="translate(0.000000,103.000000) scale(0.100000,-0.100000)"
fill="#000000" stroke="none">
<path d="M4414 999 c-142 -33 -245 -175 -231 -318 8 -77 50 -155 108 -201 62
-49 108 -64 189 -64 165 1 290 128 290 294 0 62 -30 159 -55 180 -17 14 -21
35 -5 25 6 -3 10 -2 10 3 0 5 -13 12 -30 14 -28 4 -30 3 -30 -29 0 -32 14 -45
23 -20 5 17 45 -49 58 -98 49 -177 -80 -349 -261 -349 -127 1 -229 76 -265
196 -20 68 -19 107 4 168 45 119 135 182 262 181 40 0 68 4 63 8 -15 15 -87
20 -130 10z"/>
<path d="M150 945 c-73 -20 -104 -44 -108 -83 -2 -23 1 -32 11 -32 22 0 28
-63 14 -179 -24 -217 -15 -259 51 -232 40 17 46 35 22 74 -13 21 -20 50 -20
87 0 88 22 274 34 282 6 4 37 8 68 8 46 0 62 -5 87 -26 26 -21 31 -33 31 -69
0 -36 -5 -48 -31 -69 -25 -21 -41 -26 -85 -26 -51 0 -54 -2 -54 -24 0 -39 27
-59 69 -51 166 31 230 258 92 330 -44 22 -120 26 -181 10z"/>
<path d="M597 950 c-53 -14 -113 -46 -121 -65 -12 -33 -7 -55 14 -55 18 0 20
-7 20 -68 0 -38 -7 -119 -15 -181 -16 -122 -13 -157 15 -166 23 -7 69 11 76
30 3 8 -4 36 -17 61 l-22 47 16 150 c10 98 20 153 29 159 7 5 41 7 75 5 77 -4
103 -24 103 -77 0 -55 -25 -80 -95 -94 -44 -9 -61 -17 -63 -30 -6 -30 63 -158
110 -203 57 -56 97 -65 132 -30 31 31 34 57 6 57 -45 0 -102 33 -139 83 l-39
50 50 25 c68 34 102 87 102 158 0 60 -21 97 -70 126 -37 21 -118 30 -167 18z"/>
<path d="M1578 945 c-45 -25 -99 -163 -132 -344 -20 -107 -21 -180 -2 -187 8
-3 27 0 43 8 l28 13 1 120 c0 119 21 243 45 272 7 7 20 13 30 13 19 0 18 4 39
-155 19 -149 55 -195 126 -162 39 19 70 78 114 212 26 80 37 97 58 93 14 -3
16 -29 16 -178 1 -184 9 -223 47 -235 25 -8 73 16 77 39 2 10 -5 30 -15 45
-40 54 -48 98 -46 264 2 145 1 159 -17 177 -28 28 -47 25 -84 -12 -23 -23 -42
-59 -61 -118 -46 -141 -71 -190 -95 -190 -30 0 -46 46 -66 186 -13 93 -20 123
-36 137 -24 20 -35 21 -70 2z"/>
<path d="M2317 949 c-91 -22 -157 -76 -157 -132 0 -26 3 -29 26 -24 20 4 24 1
18 -12 -50 -114 -57 -201 -21 -271 39 -79 114 -110 213 -90 78 16 132 60 171
140 39 78 50 154 33 235 -26 124 -142 187 -283 154z m170 -106 c46 -34 67 -79
67 -147 -1 -119 -60 -187 -168 -194 -51 -3 -67 0 -96 20 -19 13 -43 39 -53 58
-39 74 4 248 67 276 45 21 148 14 183 -13z"/>
<path d="M2825 950 c-90 -19 -135 -51 -135 -95 0 -19 5 -25 18 -23 24 4 27
-75 8 -228 -17 -138 -11 -162 44 -181 82 -29 216 11 280 84 84 96 101 269 37
365 -44 65 -154 99 -252 78z m151 -96 c54 -26 78 -68 82 -146 4 -59 1 -73 -22
-112 -34 -58 -107 -96 -183 -96 -46 0 -55 3 -70 26 -16 24 -16 35 0 177 10 97
21 153 29 158 23 15 128 10 164 -7z"/>
<path d="M3361 950 c-23 -5 -63 -21 -88 -35 -69 -41 -98 -125 -42 -125 16 0
19 -4 14 -17 -27 -64 -34 -96 -35 -161 0 -133 57 -196 180 -196 80 0 131 24
187 88 85 97 100 279 31 379 -40 57 -150 87 -247 67z m159 -102 c61 -42 75
-71 75 -157 0 -66 -4 -83 -25 -114 -61 -91 -223 -103 -277 -21 -52 80 -20 258
55 298 43 24 133 20 172 -6z"/>
<path d="M3863 950 c-79 -17 -123 -49 -123 -92 0 -17 5 -28 14 -28 21 0 25
-54 13 -175 -23 -226 -15 -263 51 -236 40 17 46 35 22 74 -13 21 -20 50 -20
87 0 88 22 274 34 282 17 12 112 9 139 -3 27 -12 47 -47 47 -80 0 -37 -52 -77
-109 -85 -47 -6 -51 -9 -51 -34 0 -36 51 -135 95 -187 67 -78 165 -77 165 2 0
7 -18 15 -42 19 -35 6 -53 18 -95 62 -29 31 -53 59 -53 64 0 4 12 12 28 18 41
14 93 62 108 99 58 137 -58 248 -223 213z"/>
<path d="M1142 910 c-56 -12 -132 -68 -171 -127 -61 -92 -32 -221 60 -273 59
-32 151 -33 227 0 58 25 89 56 122 125 27 56 25 130 -6 191 -33 66 -137 103
-232 84z m160 -43 c75 -57 93 -122 63 -225 -17 -56 -50 -88 -119 -117 -50 -21
-145 -21 -185 0 -17 9 -35 13 -40 11 -10 -6 -35 21 -36 38 -1 6 -9 29 -19 50
-39 86 23 204 129 247 93 37 154 36 207 -4z"/>
<path d="M1250 735 c0 -16 6 -25 15 -25 9 0 15 9 15 25 0 16 -6 25 -15 25 -9
0 -15 -9 -15 -25z"/>
<path d="M1062 726 c2 -15 8 -26 13 -26 15 0 12 43 -3 48 -10 3 -13 -4 -10
-22z"/>
<path d="M1213 648 c-24 -24 -81 -28 -94 -6 -7 10 -9 10 -9 0 0 -7 12 -17 28
-23 21 -8 34 -7 59 6 17 10 34 24 37 31 7 19 4 18 -21 -8z"/>
<path d="M990 566 c0 -2 8 -10 18 -17 15 -13 16 -12 3 4 -13 16 -21 21 -21 13z"/>
<path d="M4383 895 c-73 -37 -106 -89 -111 -174 -3 -55 1 -74 20 -111 85 -159
323 -141 383 29 26 76 14 144 -38 207 -62 75 -163 94 -254 49z m161 -185 c36
-16 66 -34 66 -40 0 -14 -26 -13 -58 4 -15 7 -37 17 -49 20 -22 7 -23 5 -23
-49 0 -41 -3 -56 -12 -53 -13 5 -24 109 -14 134 7 19 15 18 90 -16z"/>
<path d="M4800 800 c0 -6 42 -10 105 -10 63 0 105 4 105 10 0 6 -42 10 -105
10 -63 0 -105 -4 -105 -10z"/>
<path d="M4850 700 c0 -6 41 -10 104 -10 59 0 108 4 111 10 4 6 -33 10 -104
10 -67 0 -111 -4 -111 -10z"/>
<path d="M4800 610 c0 -6 42 -10 105 -10 63 0 105 4 105 10 0 6 -42 10 -105
10 -63 0 -105 -4 -105 -10z"/>
<path d="M3533 283 c-23 -8 -14 -23 13 -23 l26 0 -4 -120 c-4 -117 -3 -121 16
-118 19 3 20 11 21 117 0 113 0 115 24 121 46 11 32 25 -26 26 -32 1 -64 -1
-70 -3z"/>
<path d="M3705 282 c-6 -4 -9 -58 -7 -135 3 -114 5 -128 20 -125 15 3 17 20
18 136 2 130 -2 145 -31 124z"/>
<path d="M3790 288 c-1 -2 -2 -63 -3 -136 -1 -100 1 -132 11 -132 9 0 12 28
12 106 0 58 4 103 8 100 5 -3 19 -45 32 -93 13 -48 27 -92 31 -97 9 -11 8 -13
44 107 14 48 30 87 36 87 5 0 9 -46 9 -105 0 -93 2 -105 18 -105 15 0 17 13
18 135 l0 136 -25 -3 c-23 -3 -29 -12 -48 -72 -12 -38 -27 -74 -32 -79 -9 -9
-25 36 -47 126 -5 22 -12 27 -35 27 -16 0 -29 -1 -29 -2z"/>
<path d="M4095 257 c-19 -19 -35 -44 -35 -55 0 -11 -8 -23 -17 -26 -11 -5 -13
-10 -7 -14 6 -4 14 -27 17 -50 7 -58 39 -92 87 -92 36 0 60 14 60 35 0 7 -14
9 -34 7 -43 -5 -76 25 -76 68 0 28 2 30 40 30 22 0 40 5 40 10 0 6 -18 10 -41
10 -37 0 -40 2 -34 23 10 35 54 69 82 64 15 -3 22 0 20 7 -2 6 -18 12 -36 14
-25 3 -39 -4 -66 -31z"/>
<path d="M4245 282 c-6 -4 -10 -61 -10 -135 0 -122 1 -128 20 -125 19 3 20 9
16 104 -4 119 2 144 32 144 59 -1 75 -70 21 -91 -29 -11 -31 -25 -4 -32 16 -4
20 -14 20 -50 0 -63 7 -77 40 -77 28 0 29 1 14 28 -7 15 -14 39 -14 54 0 15
-10 36 -22 48 -16 15 -18 20 -6 20 8 0 22 8 31 18 42 46 -3 102 -82 102 -25 0
-50 -4 -56 -8z"/>
<path d="M4463 270 c-50 -46 -38 -87 36 -125 27 -13 51 -33 54 -44 8 -30 -20
-63 -51 -59 -24 3 -27 7 -26 40 1 31 -2 38 -17 38 -18 0 -39 -27 -39 -49 0
-26 41 -51 83 -51 48 1 72 15 87 54 15 39 -5 74 -59 105 -55 33 -70 54 -52 75
19 23 62 21 68 -4 3 -11 12 -20 19 -20 19 0 18 46 -2 54 -32 12 -81 6 -101
-14z"/>
</g>
</svg>
